# xmcd CD database file
#
# Track frame offsets:
#	150
#	21030
#	41627
#	58990
#
# Disc length: 1039 seconds
#
# Revision: 1
# Processed by: cddbd v1.5.2PL0 Copyright (c) Steve Scherf et al.
# Submitted via: CDex 1.51
#
DISCID=30040d04
DTITLE=Michael Bolton [Feat. Kenny G] - Missing You Now CD Single
DYEAR=1992
DGENRE=
TTITLE0=Missing You Now
TTITLE1=It's Only My Heart
TTITLE2=Love Cuts Deep
TTITLE3=Walk Away
EXTD=YEAR: 1992
EXTT0=
EXTT1=
EXTT2=
EXTT3=
PLAYORDER=
